<svg xmlns="http://www.w3.org/2000/svg" viewBox="0 0 1200 850" fill="none">
  <title>Anatomy of a Module — Rent Roll Analysis</title>
  <desc>Exploded engineering schematic showing the internal components of the Rent Roll Analysis module: governing node, skills, configuration, features, and outputs with annotated callouts.</desc>
  <defs>
    <linearGradient id="glow-blue" x1="0" y1="0" x2="0" y2="1">
      <stop offset="0%" stop-color="#B8CCDB" stop-opacity="0.12"/>
      <stop offset="100%" stop-color="#B8CCDB" stop-opacity="0"/>
    </linearGradient>
    <linearGradient id="card-grad" x1="0" y1="0" x2="0" y2="1">
      <stop offset="0%" stop-color="#0D1229"/>
      <stop offset="100%" stop-color="#070B1A"/>
    </linearGradient>
    <linearGradient id="module-border-grad" x1="0" y1="0" x2="0" y2="1">
      <stop offset="0%" stop-color="#C44B68"/>
      <stop offset="100%" stop-color="#1a4a2c"/>
    </linearGradient>
    <linearGradient id="input-grad" x1="0" y1="0" x2="1" y2="0">
      <stop offset="0%" stop-color="#B8CCDB" stop-opacity="0"/>
      <stop offset="100%" stop-color="#B8CCDB" stop-opacity="0.08"/>
    </linearGradient>
    <linearGradient id="output-grad" x1="0" y1="0" x2="1" y2="0">
      <stop offset="0%" stop-color="#C44B68" stop-opacity="0.08"/>
      <stop offset="100%" stop-color="#C44B68" stop-opacity="0"/>
    </linearGradient>
    <filter id="shadow-sm">
      <feDropShadow dx="0" dy="2" stdDeviation="4" flood-color="#000" flood-opacity="0.3"/>
    </filter>
    <filter id="shadow-md">
      <feDropShadow dx="0" dy="4" stdDeviation="8" flood-color="#000" flood-opacity="0.4"/>
    </filter>
    <filter id="shadow-lg">
      <feDropShadow dx="0" dy="6" stdDeviation="12" flood-color="#000" flood-opacity="0.5"/>
    </filter>
    <filter id="glow-accent">
      <feDropShadow dx="0" dy="0" stdDeviation="8" flood-color="#B8CCDB" flood-opacity="0.15"/>
    </filter>
    <filter id="glow-green">
      <feDropShadow dx="0" dy="0" stdDeviation="8" flood-color="#C44B68" flood-opacity="0.12"/>
    </filter>
    <marker id="arrow" viewBox="0 0 10 7" refX="10" refY="3.5" markerWidth="8" markerHeight="6" orient="auto-start-reverse">
      <path d="M 0 0 L 10 3.5 L 0 7 z" fill="#1C2345"/>
    </marker>
    <marker id="arrow-blue" viewBox="0 0 10 7" refX="10" refY="3.5" markerWidth="8" markerHeight="6" orient="auto-start-reverse">
      <path d="M 0 0 L 10 3.5 L 0 7 z" fill="#B8CCDB"/>
    </marker>
    <marker id="arrow-green" viewBox="0 0 10 7" refX="10" refY="3.5" markerWidth="8" markerHeight="6" orient="auto-start-reverse">
      <path d="M 0 0 L 10 3.5 L 0 7 z" fill="#C44B68"/>
    </marker>
    <marker id="arrow-dim" viewBox="0 0 10 7" refX="10" refY="3.5" markerWidth="7" markerHeight="5" orient="auto-start-reverse">
      <path d="M 0 0 L 10 3.5 L 0 7 z" fill="#1C2345"/>
    </marker>
  </defs>

  <!-- Background -->
  <rect width="1200" height="850" rx="16" fill="#070B1A"/>

  <!-- Subtle grid -->
  <g opacity="0.02">
    <line x1="100" y1="0" x2="100" y2="850" stroke="#B8CCDB" stroke-width="0.5"/>
    <line x1="200" y1="0" x2="200" y2="850" stroke="#B8CCDB" stroke-width="0.5"/>
    <line x1="300" y1="0" x2="300" y2="850" stroke="#B8CCDB" stroke-width="0.5"/>
    <line x1="400" y1="0" x2="400" y2="850" stroke="#B8CCDB" stroke-width="0.5"/>
    <line x1="500" y1="0" x2="500" y2="850" stroke="#B8CCDB" stroke-width="0.5"/>
    <line x1="600" y1="0" x2="600" y2="850" stroke="#B8CCDB" stroke-width="0.5"/>
    <line x1="700" y1="0" x2="700" y2="850" stroke="#B8CCDB" stroke-width="0.5"/>
    <line x1="800" y1="0" x2="800" y2="850" stroke="#B8CCDB" stroke-width="0.5"/>
    <line x1="900" y1="0" x2="900" y2="850" stroke="#B8CCDB" stroke-width="0.5"/>
    <line x1="1000" y1="0" x2="1000" y2="850" stroke="#B8CCDB" stroke-width="0.5"/>
    <line x1="1100" y1="0" x2="1100" y2="850" stroke="#B8CCDB" stroke-width="0.5"/>
    <line x1="0" y1="100" x2="1200" y2="100" stroke="#B8CCDB" stroke-width="0.5"/>
    <line x1="0" y1="200" x2="1200" y2="200" stroke="#B8CCDB" stroke-width="0.5"/>
    <line x1="0" y1="300" x2="1200" y2="300" stroke="#B8CCDB" stroke-width="0.5"/>
    <line x1="0" y1="400" x2="1200" y2="400" stroke="#B8CCDB" stroke-width="0.5"/>
    <line x1="0" y1="500" x2="1200" y2="500" stroke="#B8CCDB" stroke-width="0.5"/>
    <line x1="0" y1="600" x2="1200" y2="600" stroke="#B8CCDB" stroke-width="0.5"/>
    <line x1="0" y1="700" x2="1200" y2="700" stroke="#B8CCDB" stroke-width="0.5"/>
    <line x1="0" y1="800" x2="1200" y2="800" stroke="#B8CCDB" stroke-width="0.5"/>
  </g>

  <!-- Title -->
  <text x="600" y="44" font-family="Inter, sans-serif" font-weight="300" font-size="28" fill="#e2e2e6" text-anchor="middle" letter-spacing="1">Anatomy of a Module</text>
  <text x="600" y="68" font-family="Inter, sans-serif" font-weight="400" font-size="13" fill="#7c7f94" text-anchor="middle" letter-spacing="2">RENT ROLL ANALYSIS  /  EXPLODED VIEW</text>

  <!-- ====== INPUT ARROW (Left side) ====== -->
  <g>
    <!-- Input glow background -->
    <rect x="20" y="320" width="140" height="210" rx="10" fill="url(#input-grad)"/>

    <!-- Input label -->
    <text x="90" y="345" font-family="Inter, sans-serif" font-weight="500" font-size="13" fill="#B8CCDB" text-anchor="middle">INPUTS</text>

    <!-- Input items -->
    <g filter="url(#shadow-sm)">
      <rect x="30" y="360" width="120" height="32" rx="6" fill="#0D1229" stroke="#2a5a99" stroke-width="0.5"/>
      <text x="90" y="380" font-family="Inter, sans-serif" font-weight="400" font-size="10" fill="#a0a0a8" text-anchor="middle">Rent rolls</text>
    </g>
    <g filter="url(#shadow-sm)">
      <rect x="30" y="400" width="120" height="32" rx="6" fill="#0D1229" stroke="#2a5a99" stroke-width="0.5"/>
      <text x="90" y="420" font-family="Inter, sans-serif" font-weight="400" font-size="10" fill="#a0a0a8" text-anchor="middle">Market data</text>
    </g>
    <g filter="url(#shadow-sm)">
      <rect x="30" y="440" width="120" height="32" rx="6" fill="#0D1229" stroke="#2a5a99" stroke-width="0.5"/>
      <text x="90" y="460" font-family="Inter, sans-serif" font-weight="400" font-size="10" fill="#a0a0a8" text-anchor="middle">Deal documents</text>
    </g>
    <g filter="url(#shadow-sm)">
      <rect x="30" y="480" width="120" height="32" rx="6" fill="#0D1229" stroke="#2a5a99" stroke-width="0.5"/>
      <text x="90" y="500" font-family="Inter, sans-serif" font-weight="400" font-size="10" fill="#a0a0a8" text-anchor="middle">Context brief</text>
    </g>

    <!-- Arrow into module -->
    <line x1="150" y1="425" x2="195" y2="425" stroke="#B8CCDB" stroke-width="2" marker-end="url(#arrow-blue)"/>
  </g>

  <!-- ====== MAIN MODULE CONTAINER ====== -->
  <g filter="url(#shadow-lg)">
    <rect x="200" y="96" width="700" height="660" rx="12" fill="#08080a" stroke="#1a4a2c" stroke-width="2"/>
    <!-- Top accent bar -->
    <rect x="200" y="96" width="700" height="4" rx="2" fill="#C44B68"/>

    <!-- Module title inside -->
    <text x="550" y="130" font-family="Inter, sans-serif" font-weight="500" font-size="18" fill="#e2e2e6" text-anchor="middle">Rent Roll Analysis</text>
    <text x="550" y="150" font-family="Inter, sans-serif" font-weight="400" font-size="11" fill="#7c7f94" text-anchor="middle">Module  /  13 Skills  /  1 Governing Node  /  Phase 5</text>

    <!-- ====== SECTION 1: GOVERNING NODE ====== -->
    <rect x="224" y="170" width="652" height="110" rx="8" fill="#0D1229" stroke="#3a2a66" stroke-width="1" stroke-dasharray="6 3"/>

    <!-- Section label -->
    <rect x="236" y="164" width="126" height="18" rx="4" fill="#3a2a66"/>
    <text x="299" y="177" font-family="Inter, sans-serif" font-weight="500" font-size="10" fill="#B85A30" text-anchor="middle" letter-spacing="1">GOVERNING NODE</text>

    <!-- Lock icon -->
    <g transform="translate(244, 194)">
      <rect x="3" y="7" width="12" height="9" rx="2" fill="none" stroke="#B85A30" stroke-width="1"/>
      <path d="M 5 7 L 5 4 C 5 1.5 13 1.5 13 4 L 13 7" fill="none" stroke="#B85A30" stroke-width="1"/>
    </g>

    <text x="268" y="206" font-family="Inter, sans-serif" font-weight="500" font-size="14" fill="#e2e2e6">Rent Roll Analysis v3</text>
    <rect x="446" y="194" width="84" height="18" rx="4" fill="#222228"/>
    <text x="488" y="207" font-family="JetBrains Mono, monospace" font-weight="400" font-size="9" fill="#B85A30" text-anchor="middle">Enterprise v3</text>

    <text x="244" y="230" font-family="Inter, sans-serif" font-weight="400" font-size="11" fill="#a0a0a8">Standards:</text>
    <rect x="308" y="218" width="80" height="18" rx="4" fill="#222228"/>
    <text x="348" y="231" font-family="JetBrains Mono, monospace" font-weight="400" font-size="9" fill="#a0a0a8" text-anchor="middle">FNMA</text>
    <rect x="396" y="218" width="48" height="18" rx="4" fill="#222228"/>
    <text x="420" y="231" font-family="JetBrains Mono, monospace" font-weight="400" font-size="9" fill="#a0a0a8" text-anchor="middle">IREM</text>
    <rect x="452" y="218" width="40" height="18" rx="4" fill="#222228"/>
    <text x="472" y="231" font-family="JetBrains Mono, monospace" font-weight="400" font-size="9" fill="#a0a0a8" text-anchor="middle">CFA</text>
    <rect x="500" y="218" width="48" height="18" rx="4" fill="#222228"/>
    <text x="524" y="231" font-family="JetBrains Mono, monospace" font-weight="400" font-size="9" fill="#a0a0a8" text-anchor="middle">CCIM</text>

    <text x="244" y="256" font-family="Inter, sans-serif" font-weight="400" font-size="11" fill="#7c7f94">Methodology: Dual-scenario, market-derived rents, quality gates</text>

    <!-- ====== SECTION 2: SKILLS GRID ====== -->
    <rect x="224" y="300" width="440" height="290" rx="8" fill="#0D1229" stroke="#2a2a32" stroke-width="1"/>

    <!-- Section label -->
    <rect x="236" y="294" width="120" height="18" rx="4" fill="#1a4a2c"/>
    <text x="296" y="307" font-family="Inter, sans-serif" font-weight="500" font-size="10" fill="#C44B68" text-anchor="middle" letter-spacing="1">SKILLS  (13)</text>

    <!-- Skills grid: 3 columns x 3 rows + overflow -->
    <!-- Row 1 -->
    <g>
      <rect x="240" y="322" width="128" height="48" rx="6" fill="#070B1A" stroke="#2a2a32" stroke-width="0.5"/>
      <circle cx="254" cy="338" r="3.5" fill="#C44B68"/>
      <text x="264" y="342" font-family="Inter, sans-serif" font-weight="500" font-size="10" fill="#e2e2e6">S1</text>
      <text x="280" y="342" font-family="Inter, sans-serif" font-weight="400" font-size="10" fill="#a0a0a8">Lndr Rent Deriv</text>
      <text x="254" y="360" font-family="JetBrains Mono, monospace" font-weight="400" font-size="8" fill="#7c7f94">lender-rent-derivation</text>
    </g>
    <g>
      <rect x="378" y="322" width="128" height="48" rx="6" fill="#070B1A" stroke="#2a2a32" stroke-width="0.5"/>
      <circle cx="392" cy="338" r="3.5" fill="#C44B68"/>
      <text x="402" y="342" font-family="Inter, sans-serif" font-weight="500" font-size="10" fill="#e2e2e6">S2</text>
      <text x="418" y="342" font-family="Inter, sans-serif" font-weight="400" font-size="10" fill="#a0a0a8">Loss to Lease</text>
      <text x="392" y="360" font-family="JetBrains Mono, monospace" font-weight="400" font-size="8" fill="#7c7f94">loss-to-lease</text>
    </g>
    <g>
      <rect x="516" y="322" width="128" height="48" rx="6" fill="#070B1A" stroke="#2a2a32" stroke-width="0.5"/>
      <circle cx="530" cy="338" r="3.5" fill="#C44B68"/>
      <text x="540" y="342" font-family="Inter, sans-serif" font-weight="500" font-size="10" fill="#e2e2e6">S3</text>
      <text x="556" y="342" font-family="Inter, sans-serif" font-weight="400" font-size="10" fill="#a0a0a8">Concession Anlys</text>
      <text x="530" y="360" font-family="JetBrains Mono, monospace" font-weight="400" font-size="8" fill="#7c7f94">concession-analysis</text>
    </g>

    <!-- Row 2 -->
    <g>
      <rect x="240" y="380" width="128" height="48" rx="6" fill="#070B1A" stroke="#2a2a32" stroke-width="0.5"/>
      <circle cx="254" cy="396" r="3.5" fill="#C44B68"/>
      <text x="264" y="400" font-family="Inter, sans-serif" font-weight="500" font-size="10" fill="#e2e2e6">S4</text>
      <text x="280" y="400" font-family="Inter, sans-serif" font-weight="400" font-size="10" fill="#a0a0a8">Unit Mix Anlys</text>
      <text x="254" y="418" font-family="JetBrains Mono, monospace" font-weight="400" font-size="8" fill="#7c7f94">unit-mix-analysis</text>
    </g>
    <g>
      <rect x="378" y="380" width="128" height="48" rx="6" fill="#070B1A" stroke="#2a2a32" stroke-width="0.5"/>
      <circle cx="392" cy="396" r="3.5" fill="#C44B68"/>
      <text x="402" y="400" font-family="Inter, sans-serif" font-weight="500" font-size="10" fill="#e2e2e6">S5</text>
      <text x="418" y="400" font-family="Inter, sans-serif" font-weight="400" font-size="10" fill="#a0a0a8">Vac Trnd Anlys</text>
      <text x="392" y="418" font-family="JetBrains Mono, monospace" font-weight="400" font-size="8" fill="#7c7f94">vacancy-trend-analysis</text>
    </g>
    <g>
      <rect x="516" y="380" width="128" height="48" rx="6" fill="#070B1A" stroke="#2a2a32" stroke-width="0.5"/>
      <circle cx="530" cy="396" r="3.5" fill="#C44B68"/>
      <text x="540" y="400" font-family="Inter, sans-serif" font-weight="500" font-size="10" fill="#e2e2e6">S6</text>
      <text x="556" y="400" font-family="Inter, sans-serif" font-weight="400" font-size="10" fill="#a0a0a8">Lease-Up Proj</text>
      <text x="530" y="418" font-family="JetBrains Mono, monospace" font-weight="400" font-size="8" fill="#7c7f94">lease-up-projection</text>
    </g>

    <!-- Row 3 -->
    <g>
      <rect x="240" y="438" width="128" height="48" rx="6" fill="#070B1A" stroke="#2a2a32" stroke-width="0.5"/>
      <circle cx="254" cy="454" r="3.5" fill="#C44B68"/>
      <text x="264" y="458" font-family="Inter, sans-serif" font-weight="500" font-size="10" fill="#e2e2e6">S7</text>
      <text x="280" y="458" font-family="Inter, sans-serif" font-weight="400" font-size="10" fill="#a0a0a8">Rent Comp Grid</text>
      <text x="254" y="476" font-family="JetBrains Mono, monospace" font-weight="400" font-size="8" fill="#7c7f94">rent-comp-grid</text>
    </g>
    <g>
      <rect x="378" y="438" width="128" height="48" rx="6" fill="#070B1A" stroke="#2a2a32" stroke-width="0.5"/>
      <circle cx="392" cy="454" r="3.5" fill="#C44B68"/>
      <text x="402" y="458" font-family="Inter, sans-serif" font-weight="500" font-size="10" fill="#e2e2e6">S8</text>
      <text x="418" y="458" font-family="Inter, sans-serif" font-weight="400" font-size="10" fill="#a0a0a8">Revenue Proj</text>
      <text x="392" y="476" font-family="JetBrains Mono, monospace" font-weight="400" font-size="8" fill="#7c7f94">revenue-projection</text>
    </g>
    <g>
      <rect x="516" y="438" width="128" height="48" rx="6" fill="#070B1A" stroke="#2a2a32" stroke-width="0.5"/>
      <circle cx="530" cy="454" r="3.5" fill="#C44B68"/>
      <text x="540" y="458" font-family="Inter, sans-serif" font-weight="500" font-size="10" fill="#e2e2e6">S9</text>
      <text x="556" y="458" font-family="Inter, sans-serif" font-weight="400" font-size="10" fill="#a0a0a8">Other Income</text>
      <text x="530" y="476" font-family="JetBrains Mono, monospace" font-weight="400" font-size="8" fill="#7c7f94">other-income-analysis</text>
    </g>

    <!-- +4 more -->
    <rect x="240" y="496" width="404" height="32" rx="6" fill="#070B1A" stroke="#2a2a32" stroke-width="0.5" stroke-dasharray="4 2"/>
    <text x="442" y="516" font-family="Inter, sans-serif" font-weight="400" font-size="11" fill="#7c7f94" text-anchor="middle">+ 4 more skills: Renewal Probability, Market Rent Survey, Rent Growth Forecast, Rent Roll Audit</text>

    <!-- Internal chain arrows between skills -->
    <line x1="368" y1="346" x2="378" y2="346" stroke="#2a2a32" stroke-width="0.5" marker-end="url(#arrow-dim)"/>
    <line x1="506" y1="346" x2="516" y2="346" stroke="#2a2a32" stroke-width="0.5" marker-end="url(#arrow-dim)"/>
    <line x1="368" y1="404" x2="378" y2="404" stroke="#2a2a32" stroke-width="0.5" marker-end="url(#arrow-dim)"/>
    <line x1="506" y1="404" x2="516" y2="404" stroke="#2a2a32" stroke-width="0.5" marker-end="url(#arrow-dim)"/>

    <!-- ====== SECTION 3: CONFIG ====== -->
    <rect x="680" y="300" width="196" height="80" rx="8" fill="#0D1229" stroke="#4a1a1a" stroke-width="1"/>

    <rect x="692" y="294" width="60" height="18" rx="4" fill="#4a1a1a"/>
    <text x="722" y="307" font-family="Inter, sans-serif" font-weight="500" font-size="10" fill="#c44a4a" text-anchor="middle" letter-spacing="1">CONFIG</text>

    <!-- Config icon -->
    <g transform="translate(696, 320)">
      <rect x="0" y="0" width="14" height="16" rx="2" fill="none" stroke="#c44a4a" stroke-width="1"/>
      <line x1="4" y1="5" x2="10" y2="5" stroke="#c44a4a" stroke-width="0.8"/>
      <line x1="4" y1="9" x2="10" y2="9" stroke="#c44a4a" stroke-width="0.8"/>
      <line x1="4" y1="13" x2="8" y2="13" stroke="#c44a4a" stroke-width="0.8"/>
    </g>

    <text x="718" y="334" font-family="JetBrains Mono, monospace" font-weight="400" font-size="10" fill="#e2e2e6">credit_box_config</text>
    <text x="718" y="350" font-family="JetBrains Mono, monospace" font-weight="400" font-size="10" fill="#e2e2e6">.json</text>
    <text x="696" y="370" font-family="Inter, sans-serif" font-weight="400" font-size="9" fill="#7c7f94">LTV, DSCR, DY, LTC</text>

    <!-- ====== SECTION 4: FEATURES ====== -->
    <rect x="680" y="400" width="196" height="130" rx="8" fill="#0D1229" stroke="#5a4420" stroke-width="1"/>

    <rect x="692" y="394" width="76" height="18" rx="4" fill="#5a4420"/>
    <text x="730" y="407" font-family="Inter, sans-serif" font-weight="500" font-size="10" fill="#d4a039" text-anchor="middle" letter-spacing="1">FEATURES</text>

    <g>
      <circle cx="700" cy="428" r="3.5" fill="#d4a039"/>
      <text x="712" y="432" font-family="Inter, sans-serif" font-weight="400" font-size="11" fill="#a0a0a8">Format Enforcer</text>
    </g>
    <g>
      <circle cx="700" cy="452" r="3.5" fill="#d4a039"/>
      <text x="712" y="456" font-family="Inter, sans-serif" font-weight="400" font-size="11" fill="#a0a0a8">Dual Scenario</text>
    </g>
    <g>
      <circle cx="700" cy="476" r="3.5" fill="#d4a039"/>
      <text x="712" y="480" font-family="Inter, sans-serif" font-weight="400" font-size="11" fill="#a0a0a8">QA Triple-Agent</text>
    </g>
    <g>
      <circle cx="700" cy="500" r="3.5" fill="#d4a039"/>
      <text x="712" y="504" font-family="Inter, sans-serif" font-weight="400" font-size="11" fill="#a0a0a8">Skill Chain Audit</text>
    </g>
    <g>
      <circle cx="700" cy="520" r="3.5" fill="#d4a039"/>
      <text x="712" y="524" font-family="Inter, sans-serif" font-weight="400" font-size="11" fill="#a0a0a8">Master Repo Sync</text>
    </g>

    <!-- ====== SECTION 5: OUTPUTS ====== -->
    <rect x="224" y="552" width="652" height="100" rx="8" fill="#0D1229" stroke="#1a4a2c" stroke-width="1"/>

    <rect x="236" y="546" width="72" height="18" rx="4" fill="#1a4a2c"/>
    <text x="272" y="559" font-family="Inter, sans-serif" font-weight="500" font-size="10" fill="#C44B68" text-anchor="middle" letter-spacing="1">OUTPUTS</text>

    <!-- Output document boxes -->
    <g>
      <rect x="240" y="572" width="148" height="66" rx="6" fill="#070B1A" stroke="#2a2a32" stroke-width="0.5"/>
      <rect x="240" y="572" width="3" height="66" rx="1.5" fill="#C44B68"/>
      <!-- Doc icon -->
      <rect x="254" y="582" width="12" height="14" rx="1.5" fill="none" stroke="#C44B68" stroke-width="0.8"/>
      <line x1="257" y1="588" x2="263" y2="588" stroke="#C44B68" stroke-width="0.5"/>
      <line x1="257" y1="591" x2="263" y2="591" stroke="#C44B68" stroke-width="0.5"/>
      <text x="272" y="594" font-family="Inter, sans-serif" font-weight="500" font-size="11" fill="#e2e2e6">Lender Rent</text>
      <text x="254" y="610" font-family="Inter, sans-serif" font-weight="400" font-size="10" fill="#a0a0a8">Report</text>
      <text x="254" y="628" font-family="JetBrains Mono, monospace" font-weight="400" font-size="8" fill="#7c7f94">DOCX  /  30+ pages</text>
    </g>

    <g>
      <rect x="400" y="572" width="148" height="66" rx="6" fill="#070B1A" stroke="#2a2a32" stroke-width="0.5"/>
      <rect x="400" y="572" width="3" height="66" rx="1.5" fill="#C44B68"/>
      <rect x="414" y="582" width="12" height="14" rx="1.5" fill="none" stroke="#C44B68" stroke-width="0.8"/>
      <line x1="417" y1="588" x2="423" y2="588" stroke="#C44B68" stroke-width="0.5"/>
      <line x1="417" y1="591" x2="423" y2="591" stroke="#C44B68" stroke-width="0.5"/>
      <text x="432" y="594" font-family="Inter, sans-serif" font-weight="500" font-size="11" fill="#e2e2e6">Revenue Analysis</text>
      <text x="414" y="610" font-family="Inter, sans-serif" font-weight="400" font-size="10" fill="#a0a0a8">Deep Dive</text>
      <text x="414" y="628" font-family="JetBrains Mono, monospace" font-weight="400" font-size="8" fill="#7c7f94">DOCX  /  15+ pages</text>
    </g>

    <g>
      <rect x="560" y="572" width="148" height="66" rx="6" fill="#070B1A" stroke="#2a2a32" stroke-width="0.5"/>
      <rect x="560" y="572" width="3" height="66" rx="1.5" fill="#C44B68"/>
      <rect x="574" y="582" width="12" height="14" rx="1.5" fill="none" stroke="#C44B68" stroke-width="0.8"/>
      <line x1="577" y1="588" x2="583" y2="588" stroke="#C44B68" stroke-width="0.5"/>
      <line x1="577" y1="591" x2="583" y2="591" stroke="#C44B68" stroke-width="0.5"/>
      <text x="592" y="594" font-family="Inter, sans-serif" font-weight="500" font-size="11" fill="#e2e2e6">Unit Mix</text>
      <text x="574" y="610" font-family="Inter, sans-serif" font-weight="400" font-size="10" fill="#a0a0a8">Summary</text>
      <text x="574" y="628" font-family="JetBrains Mono, monospace" font-weight="400" font-size="8" fill="#7c7f94">DOCX  /  10+ pages</text>
    </g>

    <g>
      <rect x="720" y="572" width="148" height="66" rx="6" fill="#070B1A" stroke="#2a2a32" stroke-width="0.5"/>
      <rect x="720" y="572" width="3" height="66" rx="1.5" fill="#C44B68"/>
      <rect x="734" y="582" width="12" height="14" rx="1.5" fill="none" stroke="#C44B68" stroke-width="0.8"/>
      <line x1="737" y1="588" x2="743" y2="588" stroke="#C44B68" stroke-width="0.5"/>
      <line x1="737" y1="591" x2="743" y2="591" stroke="#C44B68" stroke-width="0.5"/>
      <text x="752" y="594" font-family="Inter, sans-serif" font-weight="500" font-size="11" fill="#e2e2e6">Lease-Up</text>
      <text x="734" y="610" font-family="Inter, sans-serif" font-weight="400" font-size="10" fill="#a0a0a8">Projection</text>
      <text x="734" y="628" font-family="JetBrains Mono, monospace" font-weight="400" font-size="8" fill="#7c7f94">DOCX  /  10+ pages</text>
    </g>

    <!-- Internal flow arrows: Node -> Skills -> Outputs -->
    <line x1="440" y1="280" x2="440" y2="300" stroke="#1C2345" stroke-width="1" marker-end="url(#arrow-dim)"/>
    <line x1="440" y1="536" x2="440" y2="552" stroke="#1C2345" stroke-width="1" marker-end="url(#arrow-dim)"/>

    <!-- Config to Skills connection -->
    <line x1="680" y1="340" x2="664" y2="340" stroke="#4a1a1a" stroke-width="0.8" stroke-dasharray="3 2"/>

    <!-- Features to Skills connection -->
    <line x1="680" y1="460" x2="664" y2="460" stroke="#5a4420" stroke-width="0.8" stroke-dasharray="3 2"/>

    <!-- Bottom branding bar inside module -->
    <rect x="224" y="668" width="652" height="30" rx="6" fill="#0D1229"/>
    <text x="550" y="688" font-family="Inter, sans-serif" font-weight="400" font-size="10" fill="#7c7f94" text-anchor="middle" letter-spacing="1">V3.1 Elevated Design  /  Calibri Typography  /  Institutional Quality</text>
  </g>

  <!-- ====== OUTPUT ARROW (Right side) ====== -->
  <g>
    <rect x="1040" y="320" width="140" height="210" rx="10" fill="url(#output-grad)"/>

    <text x="1110" y="345" font-family="Inter, sans-serif" font-weight="500" font-size="13" fill="#C44B68" text-anchor="middle">OUTPUTS</text>

    <g filter="url(#shadow-sm)">
      <rect x="1050" y="360" width="120" height="32" rx="6" fill="#0D1229" stroke="#1a4a2c" stroke-width="0.5"/>
      <text x="1110" y="380" font-family="Inter, sans-serif" font-weight="400" font-size="10" fill="#a0a0a8" text-anchor="middle">Lender Rent Rpt</text>
    </g>
    <g filter="url(#shadow-sm)">
      <rect x="1050" y="400" width="120" height="32" rx="6" fill="#0D1229" stroke="#1a4a2c" stroke-width="0.5"/>
      <text x="1110" y="420" font-family="Inter, sans-serif" font-weight="400" font-size="10" fill="#a0a0a8" text-anchor="middle">Revenue Deep Dive</text>
    </g>
    <g filter="url(#shadow-sm)">
      <rect x="1050" y="440" width="120" height="32" rx="6" fill="#0D1229" stroke="#1a4a2c" stroke-width="0.5"/>
      <text x="1110" y="460" font-family="Inter, sans-serif" font-weight="400" font-size="10" fill="#a0a0a8" text-anchor="middle">Unit Mix Analysis</text>
    </g>
    <g filter="url(#shadow-sm)">
      <rect x="1050" y="480" width="120" height="32" rx="6" fill="#0D1229" stroke="#1a4a2c" stroke-width="0.5"/>
      <text x="1110" y="500" font-family="Inter, sans-serif" font-weight="400" font-size="10" fill="#a0a0a8" text-anchor="middle">Lease-Up Proj</text>
    </g>

    <!-- Arrow from module -->
    <line x1="900" y1="425" x2="1040" y2="425" stroke="#C44B68" stroke-width="2" marker-end="url(#arrow-green)"/>
  </g>

  <!-- ====== EXPLODED ANNOTATIONS (callout lines from module to margins) ====== -->

  <!-- Annotation 1: Node -->
  <g>
    <line x1="876" y1="180" x2="930" y2="120" stroke="#3a2a66" stroke-width="1" stroke-dasharray="3 2"/>
    <rect x="934" y="96" width="240" height="56" rx="8" fill="#0D1229" stroke="#3a2a66" stroke-width="0.5"/>
    <text x="950" y="116" font-family="Inter, sans-serif" font-weight="500" font-size="10" fill="#B85A30">Enterprise v3 Edition</text>
    <text x="950" y="132" font-family="Inter, sans-serif" font-weight="400" font-size="10" fill="#a0a0a8">References FNMA Selling Guide,</text>
    <text x="950" y="146" font-family="Inter, sans-serif" font-weight="400" font-size="10" fill="#a0a0a8">IREM benchmarks, CFA standards</text>
  </g>

  <!-- Annotation 2: Skills -->
  <g>
    <line x1="900" y1="440" x2="950" y2="538" stroke="#1a4a2c" stroke-width="1" stroke-dasharray="3 2"/>
    <rect x="934" y="540" width="246" height="56" rx="8" fill="#0D1229" stroke="#1a4a2c" stroke-width="0.5"/>
    <text x="950" y="560" font-family="Inter, sans-serif" font-weight="500" font-size="10" fill="#C44B68">13 Standalone Analytical Tasks</text>
    <text x="950" y="576" font-family="Inter, sans-serif" font-weight="400" font-size="10" fill="#a0a0a8">Each runs independently or chains</text>
    <text x="950" y="590" font-family="Inter, sans-serif" font-weight="400" font-size="10" fill="#a0a0a8">together in the execution DAG</text>
  </g>

  <!-- Annotation 3: Config -->
  <g>
    <line x1="876" y1="308" x2="950" y2="190" stroke="#4a1a1a" stroke-width="1" stroke-dasharray="3 2"/>
    <rect x="934" y="164" width="246" height="56" rx="8" fill="#0D1229" stroke="#4a1a1a" stroke-width="0.5"/>
    <text x="950" y="184" font-family="Inter, sans-serif" font-weight="500" font-size="10" fill="#c44a4a">Single Source of Truth</text>
    <text x="950" y="200" font-family="Inter, sans-serif" font-weight="400" font-size="10" fill="#a0a0a8">Change one number in config,</text>
    <text x="950" y="214" font-family="Inter, sans-serif" font-weight="400" font-size="10" fill="#a0a0a8">all 13 skills adjust automatically</text>
  </g>

  <!-- Annotation 4: Features -->
  <g>
    <line x1="876" y1="470" x2="950" y2="618" stroke="#5a4420" stroke-width="1" stroke-dasharray="3 2"/>
    <rect x="934" y="608" width="246" height="56" rx="8" fill="#0D1229" stroke="#5a4420" stroke-width="0.5"/>
    <text x="950" y="628" font-family="Inter, sans-serif" font-weight="500" font-size="10" fill="#d4a039">System-Wide Enforcement</text>
    <text x="950" y="644" font-family="Inter, sans-serif" font-weight="400" font-size="10" fill="#a0a0a8">Format Enforcer validates every output.</text>
    <text x="950" y="658" font-family="Inter, sans-serif" font-weight="400" font-size="10" fill="#a0a0a8">QA reviews before delivery.</text>
  </g>

  <!-- Annotation 5: Outputs -->
  <g>
    <line x1="876" y1="620" x2="950" y2="688" stroke="#1a4a2c" stroke-width="1" stroke-dasharray="3 2"/>
    <rect x="934" y="678" width="246" height="56" rx="8" fill="#0D1229" stroke="#1a4a2c" stroke-width="0.5"/>
    <text x="950" y="698" font-family="Inter, sans-serif" font-weight="500" font-size="10" fill="#C44B68">Institutional-Quality Documents</text>
    <text x="950" y="714" font-family="Inter, sans-serif" font-weight="400" font-size="10" fill="#a0a0a8">Calibri typography, V3.1 Elevated</text>
    <text x="950" y="728" font-family="Inter, sans-serif" font-weight="400" font-size="10" fill="#a0a0a8">design system, DOCX deliverables</text>
  </g>

  <!-- ====== BOTTOM BAR ====== -->
  <rect x="60" y="776" width="1080" height="40" rx="8" fill="#0D1229" stroke="#2a2a32" stroke-width="1"/>
  <text x="600" y="800" font-family="Inter, sans-serif" font-weight="400" font-size="11" fill="#7c7f94" text-anchor="middle" letter-spacing="1">Every module follows this pattern — Node governs, Skills execute, Config calibrates, Features enforce, Outputs deliver</text>

  <!-- Corner branding -->
  <text x="1156" y="840" font-family="JetBrains Mono, monospace" font-weight="400" font-size="9" fill="#1C2345" text-anchor="end">pinchfin.com</text>
</svg>